<?xml version="1.0" encoding="UTF-8" standalone="no"?>
<!-- Creator: CorelDRAW X7 -->

<svg
   xml:space="preserve"
   width="7.61326in"
   height="6.78576in"
   version="1.1"
   style="shape-rendering:geometricPrecision; text-rendering:geometricPrecision; image-rendering:optimizeQuality; fill-rule:evenodd; clip-rule:evenodd"
   viewBox="0 0 7613 6786"
   id="svg165"
   sodipodi:docname="Logo LMS.svg"
   inkscape:version="1.1 (c68e22c387, 2021-05-23)"
   xmlns:inkscape="http://www.inkscape.org/namespaces/inkscape"
   xmlns:sodipodi="http://sodipodi.sourceforge.net/DTD/sodipodi-0.dtd"
   xmlns="http://www.w3.org/2000/svg"
   xmlns:svg="http://www.w3.org/2000/svg"><sodipodi:namedview
   id="namedview167"
   pagecolor="#ffffff"
   bordercolor="#111111"
   borderopacity="1"
   inkscape:pageshadow="0"
   inkscape:pageopacity="0"
   inkscape:pagecheckerboard="1"
   inkscape:document-units="in"
   showgrid="false"
   inkscape:zoom="1.0854636"
   inkscape:cx="342.7107"
   inkscape:cy="334.87994"
   inkscape:window-width="1280"
   inkscape:window-height="738"
   inkscape:window-x="-6"
   inkscape:window-y="-6"
   inkscape:window-maximized="1"
   inkscape:current-layer="Layer_x0020_1" />
 <defs
   id="defs4">
  <style
   type="text/css"
   id="style2">
   <![CDATA[
    .str0 {stroke:#52658C;stroke-width:3}
    .fil3 {fill:#FEFEFE}
    .fil0 {fill:#52658C}
    .fil2 {fill:#52658C}
    .fil1 {fill:#FEFEFE}
    .fil4 {fill:#52658C;fill-rule:nonzero}
   ]]>
  </style>
 
   
   
   
   
   
   
   
   
   
   
   
   
   
   
   
   
   
   
   
   
   
   
   
   
   
   
   
   
   
   
   
   
   
   
   
   
   
   
   
   
   
   
   
   
   
   
   
   
   
   
   
   
   
   
   
   
   
   
   
   
   
   
   
   
   
   
   
   
   
   
   
   
   
   
   
   
   
   
  </defs>
 <g
   id="Layer_x0020_1"
   inkscape:label="Layer 1">
  <metadata
   id="CorelCorpID_0Corel-Layer" />
  <path
   class="fil0"
   d="m 5563,954 c -44,0 -95,-59 -146,-70 l 65,168 -122,129 153,-23 72,149 14,-7 c 12,-151 46,-172 184,-211 l -116,-64 27,-178 c -53,14 -109,107 -131,107 z"
   id="path7" /><path
   class="fil0"
   d="m 1277,942 c -39,0 -57,-53 -134,-58 l 53,167 -122,142 c 82,0 64,-24 120,-24 h 46 l 61,155 h 24 c 0,-13 37,-169 41,-174 23,-34 122,-10 162,-65 -27,-6 -134,-67 -136,-84 l 29,-166 c -27,18 -120,107 -144,107 z"
   id="path9" /><path
   class="fil1"
   d="m 5241,3172 c -38,56 -91,306 -127,398 -54,137 -73,262 -141,385 -58,105 -128,242 -175,349 -46,102 -146,217 -206,319 -70,119 -393,477 -497,553 -104,75 -496,441 -621,441 h -12 c -144,0 -715,-530 -827,-641 -185,-185 -495,-608 -598,-869 -64,-159 -161,-347 -215,-512 -60,-182 -113,-394 -153,-587 -83,-399 -141,-853 -144,-1341 l 63,-57 c 363,0 814,-170 1066,-294 83,-41 372,-207 423,-257 29,-28 370,-308 373,-308 h 36 c 8,0 330,269 377,303 135,100 262,184 419,262 153,76 308,143 486,194 120,34 446,100 583,97 l 57,63 c 0,212 -17,593 -51,784 -21,117 -27,242 -51,366 -19,95 -65,266 -65,352 z M 1576,1455 h -179 l -12,240 105,1109 26,34 c 0,270 189,760 261,980 95,290 256,594 415,826 188,276 332,447 563,678 93,93 231,206 337,283 38,28 347,251 370,251 34,0 409,-264 461,-303 118,-89 288,-261 396,-368 253,-253 464,-567 639,-900 155,-294 329,-754 405,-1122 78,-380 176,-910 176,-1362 v -346 c -481,0 -932,-101 -1237,-279 -168,-98 -305,-194 -449,-314 -111,-92 -320,-325 -391,-373 -131,195 -547,530 -768,652 -275,151 -700,314 -1118,314 z"
   id="path11" /><path
   class="fil0"
   d="m 6052,2600 -4,84 28,309 h 21 l 315,-1132 23,-60 c -76,20 -231,237 -271,314 -66,125 -112,299 -112,485 z"
   id="path13" /><path
   class="fil0"
   d="m 836,2997 47,-326 v -71 c 0,-337 -182,-666 -385,-798 z"
   id="path15" /><path
   class="fil0"
   d="M 549,3148 0,2039 c 0,577 173,911 549,1109 z"
   id="path17" /><path
   class="fil0"
   d="m 401,2098 5,49 c 0,386 168,755 396,905 L 441,1813 Z"
   id="path19" /><path
   class="fil0"
   d="m 788,2027 c 0,29 70,170 88,246 27,111 43,163 43,303 v 155 c 0,104 -39,216 27,262 L 931,1693 h -24 c -6,70 -119,256 -119,334 z"
   id="path21" /><path
   class="fil0"
   d="m 6367,3145 c 154,-31 359,-285 426,-414 112,-217 143,-376 138,-706 z"
   id="path23" /><path
   class="fil0"
   d="m 559,3036 14,5 c 2,-81 24,-37 24,-83 v -12 C 597,2884 358,2547 358,2254 319,2195 130,2022 46,2016 Z"
   id="path25" /><path
   class="fil0"
   d="m 996,2969 c 47,-38 174,-433 174,-536 v -119 c 0,-191 -111,-542 -208,-608 z"
   id="path27" /><path
   class="fil0"
   d="m 5766,2194 v 263 c 0,67 44,198 60,273 16,73 90,172 95,240 h 24 l -3,-72 15,-1181 c -50,37 -191,385 -191,477 z"
   id="path29" /><path
   class="fil0"
   d="m 5978,3005 c 32,-19 51,-35 51,-83 0,-65 -24,-66 -24,-131 v -191 c 0,-192 68,-437 143,-549 -19,-82 -91,-311 -144,-346 z"
   id="path31" /><polygon
   class="fil0 str0"
   points="4524,2970 4524,2886 4477,2886 4477,2922 4477,2945 "
   id="polygon33" /><path
   class="fil0"
   d="m 6172,2910 -31,135 150,-159 c 46,-69 66,-81 104,-171 24,-56 59,-157 87,-199 0,-85 36,-139 36,-250 l 6,-192 -49,-248 z"
   id="path35" /><path
   class="fil0"
   d="m 6562,2237 c 4,84 -38,325 -64,379 -17,36 -159,291 -159,294 v 48 c 0,46 18,1 33,76 l 517,-1030 -10,-13 z"
   id="path37" /><path
   class="fil2"
   d="m 4524,2886 v 84 l -47,-25 v -23 -36 z m -59,24 v 12 c 0,41 37,52 71,59 v -71 c 0,-28 -8,-36 -35,-36 -28,0 -36,8 -36,36 z"
   id="path39" /><path
   class="fil0"
   d="m 6172,2910 -48,143 c 61,-16 134,-118 167,-167 l -150,159 z"
   id="path41" /><path
   class="fil0"
   d="m 585,3196 v 107 c 0,346 112,727 310,859 v -95 l 54,-26 -328,-928 h -24 c -3,37 -12,42 -12,83 z"
   id="path43" /><path
   class="fil0"
   d="m 955,3303 c 0,10 68,105 82,145 24,66 41,102 63,176 27,91 46,295 46,419 v 59 c 0,37 -5,44 -15,75 l 55,44 -112,-1180 v -83 c -47,17 -119,270 -119,345 z"
   id="path45" /><path
   class="fil0"
   d="m 3008,3745 h 311 l 1,-559 43,-18 99,183 c 65,-44 65,-177 167,-179 v 561 h 299 V 2624 h -275 c -44,0 -150,218 -179,262 -51,-34 -135,-262 -179,-262 h -287 z"
   id="path47" /><polygon
   class="fil0"
   points="2865,3507 2567,3494 2555,2624 2268,2624 2268,3733 2865,3733 "
   id="polygon49" /><polygon
   class="fil2"
   points="2877,3494 2567,3494 2555,2624 2567,3494 2865,3507 2865,3733 2268,3733 2268,2624 2268,3733 2877,3745 "
   id="polygon51" /><path
   class="fil0"
   d="m 4119,2862 v 155 c 0,264 298,278 298,370 v 71 c 0,28 -32,60 -60,60 h -24 c -66,0 -153,-79 -167,-131 h -24 c -1,65 -70,280 -50,300 25,26 242,70 313,70 h 36 c 178,0 334,-128 334,-299 v -71 c 0,-325 -358,-325 -358,-477 v -24 c 0,-28 32,-60 60,-60 h 12 c 117,0 134,74 206,120 l 56,-275 c -71,-37 -154,-71 -262,-71 h -36 c -167,0 -334,108 -334,262 z"
   id="path53" /><path
   class="fil3"
   d="m 4536,2910 v 71 c -34,-7 -71,-18 -71,-59 v -12 c 0,-28 8,-36 36,-36 27,0 35,8 35,36 z m -417,-48 c 0,-154 167,-262 334,-262 h 36 c 108,0 191,34 262,71 l -56,275 c -72,-46 -89,-120 -206,-120 h -12 c -28,0 -60,32 -60,60 v 24 c 0,152 358,152 358,477 v 71 c 0,171 -156,299 -334,299 h -36 c -71,0 -288,-44 -313,-70 -20,-20 49,-235 50,-300 h 24 c 14,52 101,131 167,131 h 24 c 28,0 60,-32 60,-60 v -71 c 0,-92 -298,-106 -298,-370 z m 417,-310 h -83 c -240,0 -394,143 -394,382 v 59 c 0,298 310,352 310,430 v 12 c 0,19 -7,35 -24,35 -69,0 -164,-110 -179,-167 -79,2 -79,104 -95,180 -12,58 -44,184 -48,226 43,22 218,95 275,95 h 238 v 692 c 89,-59 249,-408 310,-525 78,-149 182,-443 228,-620 109,-421 226,-941 226,-1467 v -155 c -86,0 -315,-45 -398,-67 -133,-33 -248,-72 -366,-100 z"
   id="path55" /><path
   class="fil0"
   d="m 5976,4041 c 32,9 53,13 53,50 v 71 c 73,-19 194,-240 225,-311 53,-123 85,-290 85,-464 l 3,-72 -23,-205 z"
   id="path57" /><path
   class="fil0"
   d="m 5826,3888 v 262 c 98,-26 111,-132 148,-221 39,-93 65,-189 102,-280 33,-79 61,-190 91,-279 32,-93 79,-189 100,-281 -91,61 -246,217 -302,317 -54,96 -139,344 -139,482 z"
   id="path59" /><path
   class="fil0"
   d="m 1098,4138 3,-155 -13,-240 -26,-34 c 0,-206 -256,-586 -405,-620 3,42 169,482 197,542 63,137 103,474 244,507 z"
   id="path61" /><path
   class="fil0"
   d="m 5575,3506 v 119 c 0,164 55,541 125,596 l 114,-1275 c -85,56 -239,398 -239,560 z"
   id="path63" /><path
   class="fil0"
   d="m 1225,4210 c 48,-32 136,-387 136,-489 v -143 c 0,-215 -118,-520 -245,-608 z"
   id="path65" /><path
   class="fil0"
   d="m 6111,4436 c 133,-30 413,-281 465,-395 46,-101 100,-177 131,-299 26,-104 50,-255 44,-382 z"
   id="path67" /><path
   class="fil0"
   d="m 5746,4209 44,-23 c 0,-223 3,-325 33,-503 23,-134 24,-102 61,-202 21,-57 85,-161 85,-189 v -36 c 0,-42 -78,-276 -112,-299 z"
   id="path69" /><path
   class="fil0"
   d="M 843,4379 C 848,4135 822,4202 740,4067 679,3966 652,3902 607,3782 566,3673 575,3559 487,3485 464,3466 240,3334 210,3330 Z"
   id="path71" /><path
   class="fil0"
   d="m 5479,4758 -23,346 c 113,-26 127,-93 167,-191 32,-80 78,-173 106,-251 53,-146 176,-393 204,-512 -72,19 -236,182 -282,243 -40,54 -69,101 -95,167 -22,55 -52,162 -77,198 z"
   id="path73" /><path
   class="fil0"
   d="m 6351,3721 c -32,48 -63,173 -110,248 -49,77 -92,144 -139,217 l -9,182 616,-1029 c -34,3 -216,105 -242,128 -77,70 -116,111 -116,254 z"
   id="path75" /><path
   class="fil0"
   d="m 812,4436 -623,-1055 -10,6 c 0,557 265,855 633,1049 z"
   id="path77" /><path
   class="fil3"
   d="m 2268,2624 h 287 l 12,870 h 310 v 251 l -609,-12 z m -176,-969 -39,12 -144,13 -35,22 -239,27 c 0,577 92,1089 208,1558 69,277 392,1089 557,1209 v -704 h 525 v -345 h -311 v -871 h -179 c -27,0 -35,-8 -35,-36 l -1,-980 z"
   id="path79" /><path
   class="fil0"
   d="m 931,4198 v 262 c 0,246 219,732 382,775 v -190 c 0,-58 -321,-726 -358,-883 -20,14 -24,2 -24,36 z"
   id="path81" /><path
   class="fil0"
   d="m 1480,4735 12,-60 -92,-694 -17,2 -82,358 c 49,72 177,287 179,394 z"
   id="path83" /><path
   class="fil0"
   d="m 5205,4603 v 155 c 0,192 85,332 95,454 l 16,2 165,-1209 -13,-10 c -5,-4 -155,234 -168,262 -30,69 -95,253 -95,346 z"
   id="path85" /><path
   class="fil0"
   d="m 1480,5116 c 0,-246 -51,-425 -126,-601 -44,-104 -270,-352 -363,-377 3,38 180,451 210,518 24,56 86,222 110,260 106,169 -12,79 169,200 z"
   id="path87" /><path
   class="fil0"
   d="m 5373,5116 -1,48 c 52,-14 39,-149 47,-216 12,-105 21,-146 37,-236 17,-96 167,-370 167,-371 v -24 c 0,-68 -59,-307 -92,-333 z"
   id="path89" /><polygon
   class="fil0"
   points="1513,5145 1566,5175 1492,4675 1480,4735 1524,5139 "
   id="polygon91" /><path
   class="fil0"
   d="m 4763,5701 60,453 18,-1 245,-1216 c -138,92 -361,496 -323,764 z"
   id="path93" /><path
   class="fil0"
   d="m 1615,5211 c 36,-28 104,-314 104,-393 v -191 c 0,-272 -134,-484 -273,-630 z"
   id="path95" /><path
   class="fil0"
   d="m 5616,5047 7,188 c 125,-84 229,-275 296,-419 80,-172 74,-404 74,-654 l -12,-5 z"
   id="path97" /><path
   class="fil0"
   d="m 2961,2576 h 59 V 1264 c 0,-38 178,-153 218,-188 28,-23 213,-194 224,-194 8,0 454,359 454,382 v 1312 h 59 v 1216 h -59 v 1372 c 0,45 -398,322 -442,322 -63,0 -454,-278 -454,-322 V 3792 h -59 z M 4536,1562 c 118,28 233,67 366,100 83,22 312,67 398,67 v 155 c 0,526 -117,1046 -226,1467 -46,177 -150,471 -228,620 -61,117 -221,466 -310,525 v -692 h -238 c -57,0 -232,-73 -275,-95 4,-42 36,-168 48,-226 16,-76 16,-178 95,-180 15,57 110,167 179,167 17,0 24,-16 24,-35 v -12 c 0,-78 -310,-132 -310,-430 v -59 c 0,-239 154,-382 394,-382 h 83 z m -2137,-2 1,980 c 0,28 8,36 35,36 h 179 v 871 h 311 v 345 h -525 v 704 C 2235,4376 1912,3564 1843,3287 1727,2818 1635,2306 1635,1729 l 239,-27 35,-22 144,-13 39,-12 z m 2842,1612 c 0,-86 46,-257 65,-352 24,-124 30,-249 51,-366 34,-191 51,-572 51,-784 l -57,-63 c -137,3 -463,-63 -583,-97 -178,-51 -333,-118 -486,-194 -157,-78 -284,-162 -419,-262 -47,-34 -369,-303 -377,-303 h -36 c -3,0 -344,280 -373,308 -51,50 -340,216 -423,257 -252,124 -703,294 -1066,294 l -63,57 c 3,488 61,942 144,1341 40,193 93,405 153,587 54,165 151,353 215,512 103,261 413,684 598,869 112,111 683,641 827,641 h 12 c 125,0 517,-366 621,-441 104,-76 427,-434 497,-553 60,-102 160,-217 206,-319 47,-107 117,-244 175,-349 68,-123 87,-248 141,-385 36,-92 89,-342 127,-398 z"
   id="path99" /><path
   class="fil0"
   d="M 1194,5462 525,4460 c 0,453 304,917 669,1002 z"
   id="path101" /><path
   class="fil0"
   d="m 1236,5430 c 6,-220 -18,-194 -111,-305 -62,-75 -108,-182 -153,-277 -56,-119 -15,-202 -129,-288 -46,-34 -229,-133 -280,-149 z"
   id="path103" /><path
   class="fil0"
   d="m 5706,5283 -7,123 91,-123 573,-870 c -132,35 -248,137 -346,202 0,294 -309,579 -311,668 z"
   id="path105" /><path
   class="fil0"
   d="m 5725,5458 c 375,-95 686,-547 678,-1015 z"
   id="path107" /><polygon
   class="fil0"
   points="5706,5283 5689,5443 5790,5283 5699,5406 "
   id="polygon109" /><path
   class="fil3"
   d="m 3008,2624 h 287 c 44,0 128,228 179,262 29,-44 135,-262 179,-262 h 275 v 1109 h -299 v -561 c -102,2 -102,135 -167,179 l -99,-183 -43,18 -1,559 h -311 z m -47,1168 h 59 v 1372 c 0,44 391,322 454,322 44,0 442,-277 442,-322 V 3792 h 59 V 2576 h -59 V 1264 c 0,-23 -446,-382 -454,-382 -11,0 -196,171 -224,194 -40,35 -218,150 -218,188 v 1312 h -59 z"
   id="path111" /><path
   class="fil0"
   d="m 5224,6449 c 293,-21 709,-475 707,-774 l 23,-34 8,-149 z"
   id="path113" /><path
   class="fil0"
   d="m 1576,1455 c 418,0 843,-163 1118,-314 221,-122 637,-457 768,-652 71,48 280,281 391,373 144,120 281,216 449,314 305,178 756,279 1237,279 v 346 c 0,452 -98,982 -176,1362 -76,368 -250,828 -405,1122 -175,333 -386,647 -639,900 -108,107 -278,279 -396,368 -52,39 -427,303 -461,303 -23,0 -332,-223 -370,-251 -106,-77 -244,-190 -337,-283 -231,-231 -375,-402 -563,-678 -159,-232 -320,-536 -415,-826 -72,-220 -261,-710 -261,-980 l -26,-34 -105,-1109 12,-240 z m 1790,-1288 -148,8 141,89 -63,168 106,-50 c -164,245 -546,533 -819,683 -336,186 -715,271 -1234,271 -21,14 -60,38 -60,71 v 36 c 0,1080 190,2086 549,2803 192,381 403,704 684,999 129,135 768,730 952,730 82,0 417,-271 499,-324 141,-93 307,-273 429,-395 267,-266 499,-612 678,-968 347,-691 567,-1693 567,-2726 v -155 c 0,-33 -39,-57 -60,-71 -485,0 -937,-87 -1232,-272 C 4282,1018 4198,964 4126,923 4008,855 4002,824 3911,756 3810,682 3599,479 3535,379 l 71,26 -47,-140 130,-110 -163,-1 -40,-154 c -52,38 -67,167 -120,167 z"
   id="path115" /><path
   class="fil0"
   d="m 2087,6157 74,-445 v -59 c 0,-290 -143,-592 -315,-703 z"
   id="path117" /><path
   class="fil0"
   d="m 1719,5307 c 0,1 97,135 111,163 35,66 66,127 91,196 44,121 73,322 70,490 l 65,57 -253,-1276 c -46,33 -84,284 -84,370 z"
   id="path119" /><path
   class="fil0"
   d="m 2280,5975 1,20 954,314 c -109,-164 -376,-394 -644,-394 -120,0 -208,36 -311,60 z"
   id="path121" /><path
   class="fil0"
   d="m 3701,6309 931,-310 v -24 c -87,-20 -155,-60 -275,-60 h -71 c -168,0 -554,275 -585,394 z"
   id="path123" /><path
   class="fil0"
   d="m 1947,6243 c 11,-554 -169,-926 -543,-1101 z"
   id="path125" /><polygon
   class="fil0"
   points="4524,6082 4489,6094 4524,6082 4560,6070 4596,6058 4632,6046 4656,6058 4608,6094 4608,6118 4596,6130 4584,6142 4572,6154 4560,6166 4548,6178 4536,6189 4524,6201 4513,6213 4501,6225 4489,6237 4501,6225 4513,6213 4524,6201 4536,6189 4548,6178 4560,6166 4572,6154 4584,6142 4596,6130 4608,6118 4656,6082 4656,6058 4667,6033 4632,6046 4596,6058 4560,6070 "
   id="polygon127" /><path
   class="fil0"
   d="m 5013,6284 c 119,-9 365,-308 423,-412 108,-192 139,-411 133,-711 z"
   id="path129" /><path
   class="fil0"
   d="m 1910,6285 -550,-1126 -11,5 c 0,560 197,928 561,1121 z"
   id="path131" /><path
   class="fil0"
   d="m 4876,6200 54,-46 c 0,-380 123,-620 283,-849 l -67,-356 -16,-3 z"
   id="path133" /><path
   class="fil0"
   d="m 4978,6225 549,-1085 c -121,10 -367,284 -416,395 -99,224 -133,369 -133,690 z"
   id="path135" /><path
   class="fil0"
   d="m 1725,6397 -30,-208 c -146,-98 -219,-250 -296,-419 -55,-119 3,-156 -138,-220 -87,-39 -162,-78 -264,-96 z"
   id="path137" /><path
   class="fil0"
   d="m 2483,6273 349,-43 -516,-184 h -48 c 20,30 190,229 215,227 z"
   id="path139" /><polygon
   class="fil0"
   points="4524,6082 4489,6094 4108,6228 4442,6261 4443,6275 4489,6237 4501,6225 4513,6213 4524,6201 4536,6189 4548,6178 4560,6166 4572,6154 4584,6142 4596,6130 4608,6118 4608,6094 4656,6058 4632,6046 4596,6058 4560,6070 "
   id="polygon141" /><path
   class="fil0"
   d="m 5205,6380 728,-930 c -80,7 -224,85 -284,122 -118,73 -89,138 -147,270 -29,65 -114,206 -163,255 -83,84 -134,117 -134,283 z"
   id="path143" /><polygon
   class="fil0"
   points="3070,6303 3064,6318 3231,6389 3235,6358 "
   id="polygon145" /><path
   class="fil0"
   d="m 3702,6359 -1,21 c 49,-4 132,-41 154,-75 z"
   id="path147" /><path
   class="fil0"
   d="M 1707,6452 955,5486 c 0,212 143,490 234,625 72,108 360,337 518,341 z"
   id="path149" /><path
   class="fil0"
   d="m 2197,6511 h 1098 c -46,-68 -341,-214 -454,-214 h -203 c -137,0 -392,141 -441,214 z"
   id="path151" /><path
   class="fil0"
   d="m 3641,6511 h 1086 c -39,-54 -293,-214 -382,-214 h -214 c -139,0 -460,131 -490,214 z"
   id="path153" /><path
   class="fil0"
   d="m 4131,6774 h 119 c 131,0 461,-138 489,-215 H 3617 c 63,94 339,215 514,215 z"
   id="path155" /><path
   class="fil0"
   d="m 3295,6416 c 0,63 107,66 107,119 0,62 -107,73 -107,131 v 72 c 0,28 20,48 48,48 h 238 c 28,0 60,-32 60,-60 v -60 c 0,-41 -107,-77 -107,-131 0,-46 107,-69 107,-107 0,-28 -32,-60 -60,-60 h -238 c -28,0 -48,20 -48,48 z"
   id="path157" /><path
   class="fil0"
   d="m 2650,6774 h 203 c 137,0 402,-137 454,-215 H 2197 c 25,71 350,215 453,215 z"
   id="path159" /><path
   class="fil4"
   d="m 7288,1152 c 55,0 108,14 160,42 52,28 93,69 122,121 29,52 43,106 43,163 0,56 -14,110 -43,161 -28,52 -68,92 -120,121 -52,29 -105,43 -162,43 -56,0 -110,-14 -162,-43 -51,-29 -91,-69 -120,-121 -29,-51 -43,-105 -43,-161 0,-57 14,-111 43,-163 30,-52 70,-93 122,-121 52,-28 106,-42 160,-42 z m 0,54 c -45,0 -90,12 -133,35 -43,24 -77,57 -102,101 -24,43 -36,89 -36,136 0,47 12,92 36,135 24,43 57,76 100,100 43,24 88,36 135,36 47,0 92,-12 135,-36 43,-24 77,-57 101,-100 24,-43 35,-88 35,-135 0,-47 -12,-93 -36,-136 -24,-44 -58,-77 -102,-101 -43,-23 -87,-35 -133,-35 z m 105,324 53,16 c -9,36 -27,65 -55,86 -28,22 -62,32 -102,32 -51,0 -92,-16 -124,-49 -31,-33 -47,-78 -47,-136 0,-38 7,-71 22,-99 14,-28 35,-49 61,-63 27,-15 57,-22 91,-22 39,0 70,10 96,28 25,18 42,43 51,75 l -51,13 c -8,-22 -21,-38 -38,-50 -17,-11 -37,-17 -59,-17 -34,0 -61,12 -82,35 -22,24 -33,58 -33,101 0,44 11,78 31,100 20,23 46,34 79,34 25,0 48,-7 68,-23 19,-15 32,-35 39,-61 z"
   id="path161" />
 </g>
</svg>
